<?xml version="1.0" standalone="no"?><!DOCTYPE svg PUBLIC "-//W3C//DTD SVG 1.1//EN" "http://www.w3.org/Graphics/SVG/1.1/DTD/svg11.dtd"><svg class="icon" width="32px" height="32.00px" viewBox="0 0 1024 1024" version="1.1" xmlns="http://www.w3.org/2000/svg"><path fill="#ffffff" d="M512 1024a512 512 0 1 1 512-512 512 512 0 0 1-512 512z m0-960a448 448 0 1 0 448 448A448 448 0 0 0 512 64z"  /><path fill="#ffffff" d="M777.28 918.72l-141.12-141.44 72.96-255.68 36.8-18.24L704 461.12v-96.96l209.6-104.64 28.8 56.96L768 403.84v31.04l86.08 85.76-91.2 45.76-55.04 192.32 114.88 114.56-45.44 45.44zM613.12 224h-127.36l-37.12-185.6 62.72-12.8 26.88 134.4h64.64l186.88-62.4 20.48 60.8L613.12 224zM454.4 915.52L256 717.12V624L149.44 544H32v-64h138.56L320 592v98.88l121.6 121.6 65.92-109.76-51.2-102.72-149.44-74.88 106.24-176.96-91.52-273.92 60.8-20.48 100.48 302.08-85.76 143.04 106.56 53.12 76.8 153.28-126.08 210.24z"  /></svg>